<?xml version="1.0" encoding="UTF-8"?>
<svg width="800px" height="800px" viewBox="0 0 800 800" version="1.1" xmlns="http://www.w3.org/2000/svg" xmlns:xlink="http://www.w3.org/1999/xlink">
    <!-- Generator: Sketch 45.2 (43514) - http://www.bohemiancoding.com/sketch -->
    <title>placeholderNoPicture</title>
    <desc>Created with Sketch.</desc>
    <defs></defs>
    <g id="desktop" stroke="none" stroke-width="1" fill="none" fill-rule="evenodd">
        <g id="placeholderNoPicture">
            <g id="Group">
                <rect id="Rectangle-4" fill="#F0F0F0" x="0" y="0" width="800" height="800"></rect>
                <g id="Icon/Light/Cam" transform="translate(150.000000, 150.000000)" fill="#FFFFFF">
                    <path d="M432.862245,438.718975 L63.9868765,438.718975 C34.4167219,438.718975 10.3618229,414.775689 10.3618229,385.346343 L10.3618229,154.06494 C10.3618229,124.633978 34.4167219,100.692309 63.9868765,100.692309 L163.825351,100.692309 L163.825351,129.804653 L63.9868765,129.804653 C50.546488,129.804653 39.6118521,140.687818 39.6118521,154.06494 L39.6118521,385.346343 C39.6118521,398.723466 50.546488,409.60663 63.9868765,409.60663 L432.862245,409.60663 C446.302634,409.60663 457.23727,398.723466 457.23727,385.346343 L457.23727,154.06494 C457.23727,140.687818 446.302634,129.804653 432.862245,129.804653 L331.302894,129.804653 L331.302894,100.692309 L432.862245,100.692309 C462.430775,100.692309 486.487299,124.633978 486.487299,154.06494 L486.487299,385.346343 C486.487299,414.775689 462.430775,438.718975 432.862245,438.718975" id="Fill-1"></path>
                    <path d="M163.927564,101.213582 L134.677535,101.213582 C134.677535,88.2747619 139.55904,73.830187 147.734423,62.5345974 C157.651808,48.8340046 170.895571,41.3715403 185.023335,41.3715403 L307.697958,41.3715403 C336.975612,41.3715403 360.552761,73.7185897 360.552761,101.213582 L331.302731,101.213582 C331.302731,88.2747619 318.065468,70.4838848 307.697958,70.4838848 L185.023335,70.4838848 C175.166075,70.4838848 163.927564,86.6574094 163.927564,101.213582" id="Fill-4"></path>
                    <path d="M248.424561,133.701179 C182.036745,133.701179 128.026566,187.457123 128.026566,253.532441 C128.026566,319.606141 182.036745,373.362085 248.424561,373.362085 C314.812377,373.362085 368.820931,319.606141 368.820931,253.532441 C368.820931,187.457123 314.812377,133.701179 248.424561,133.701179 M248.424561,399.176648 C167.73673,399.176648 102.09154,333.84046 102.09154,253.532441 C102.09154,173.224421 167.73673,107.888234 248.424561,107.888234 C329.112392,107.888234 394.757582,173.224421 394.757582,253.532441 C394.757582,333.84046 329.112392,399.176648 248.424561,399.176648" id="Fill-6"></path>
                    <path d="M304.249217,253.531308 C304.249217,284.217337 279.255067,309.093835 248.423911,309.093835 C217.592755,309.093835 192.598605,284.217337 192.598605,253.531308 C192.598605,222.84528 217.592755,197.968782 248.423911,197.968782 C279.255067,197.968782 304.249217,222.84528 304.249217,253.531308" id="Fill-8"></path>
                </g>
            </g>
        </g>
    </g>
</svg>